<svg width="75" height="75" viewBox="0 0 75 75" fill="none" xmlns="http://www.w3.org/2000/svg">
<circle cx="37.5" cy="37.5" r="37.5" fill="#0076E4"/>
<path d="M44.2912 57C41.4837 57 39.2892 56.2083 37.7075 54.6249C36.1258 53.0019 35.335 50.8248 35.335 48.0934L35.296 18H44.5385L44.5878 47.559C44.5878 48.034 44.7459 48.4497 45.0623 48.8059C45.4181 49.1226 45.8333 49.2809 46.3078 49.2809L52.794 49.2116L48.4582 56.9207L44.2912 57ZM26.1498 34.0313L30.4279 26.674L65.5309 26.5852L61.4649 33.9916L26.1498 34.0313Z" fill="white"/>
<path d="M29.1987 26.3843H20.4006C19.1085 26.3843 17.8784 26.9322 17.0201 27.8899L17.0032 27.9087H28.3332L29.1987 26.3843Z" fill="white"/>
<path d="M27.6743 29.1792H17.1191C15.8122 29.1792 14.5684 29.7803 13.7003 30.8307H26.7339L27.6743 29.1792Z" fill="white"/>
<path d="M25.8958 32.228H12.43C11.1192 32.228 9.87088 32.7366 9 33.6254H17.0338H25.0675L25.8958 32.228Z" fill="white"/>
</svg>
